<svg width="108" height="25" viewBox="0 0 108 25" fill="none" xmlns="http://www.w3.org/2000/svg">
<path d="M9.24494 0.255005L11.8641 5.89491L18.0374 6.6431L13.4829 10.8769L14.679 16.9793L9.24494 13.956L3.8109 16.9793L5.00697 10.8769L0.452479 6.6431L6.62573 5.89491L9.24494 0.255005Z" fill="#FFC633"/>
<path d="M33.0468 0.255005L35.666 5.89491L41.8393 6.6431L37.2848 10.8769L38.4809 16.9793L33.0468 13.956L27.6128 16.9793L28.8089 10.8769L24.2544 6.6431L30.4276 5.89491L33.0468 0.255005Z" fill="#FFC633"/>
<path d="M56.8487 0.255005L59.4679 5.89491L65.6412 6.6431L61.0867 10.8769L62.2827 16.9793L56.8487 13.956L51.4147 16.9793L52.6107 10.8769L48.0562 6.6431L54.2295 5.89491L56.8487 0.255005Z" fill="#FFC633"/>
<path d="M80.6506 0.255005L83.2698 5.89491L89.4431 6.6431L84.8886 10.8769L86.0846 16.9793L80.6506 13.956L75.2166 16.9793L76.4126 10.8769L71.8581 6.6431L78.0314 5.89491L80.6506 0.255005Z" fill="#FFC633"/>
<g filter="url(#filter0_d_22_381)">
<path d="M98.566 16.9793L104 13.956V0.255005L101.381 5.89491L95.2075 6.6431L99.762 10.8769L98.566 16.9793Z" fill="#FFC633"/>
</g>
<defs>
<filter id="filter0_d_22_381" x="91.2075" y="0.255005" width="16.7925" height="24.7242" filterUnits="userSpaceOnUse" color-interpolation-filters="sRGB">
<feFlood flood-opacity="0" result="BackgroundImageFix"/>
<feColorMatrix in="SourceAlpha" type="matrix" values="0 0 0 0 0 0 0 0 0 0 0 0 0 0 0 0 0 0 127 0" result="hardAlpha"/>
<feOffset dy="4"/>
<feGaussianBlur stdDeviation="2"/>
<feComposite in2="hardAlpha" operator="out"/>
<feColorMatrix type="matrix" values="0 0 0 0 0 0 0 0 0 0 0 0 0 0 0 0 0 0 0.25 0"/>
<feBlend mode="normal" in2="BackgroundImageFix" result="effect1_dropShadow_22_381"/>
<feBlend mode="normal" in="SourceGraphic" in2="effect1_dropShadow_22_381" result="shape"/>
</filter>
</defs>
</svg>
